<mxfile host="Electron" modified="2023-12-21T16:19:05.891Z" agent="Mozilla/5.0 (Windows NT 10.0; Win64; x64) AppleWebKit/537.36 (KHTML, like Gecko) draw.io/22.1.2 Chrome/114.0.5735.289 Electron/25.9.4 Safari/537.36" etag="ex5mytIafYJV7LjV-FrK" version="22.1.2" type="device">
  <diagram name="Page-1" id="K-mqL2SvkiYAS8zropFL">
    <mxGraphModel dx="925" dy="592" grid="1" gridSize="10" guides="1" tooltips="1" connect="1" arrows="1" fold="1" page="1" pageScale="1" pageWidth="583" pageHeight="827" math="0" shadow="0">
      <root>
        <mxCell id="0" />
        <mxCell id="1" parent="0" />
        <mxCell id="0WveifivUyZPRss3lgg8-1" value="" style="ellipse;whiteSpace=wrap;html=1;aspect=fixed;fillColor=#000000;" vertex="1" parent="1">
          <mxGeometry x="220" y="40" width="20" height="20" as="geometry" />
        </mxCell>
        <mxCell id="0WveifivUyZPRss3lgg8-2" value="" style="strokeWidth=2;html=1;shape=mxgraph.flowchart.decision;whiteSpace=wrap;" vertex="1" parent="1">
          <mxGeometry x="220" y="90" width="20" height="30" as="geometry" />
        </mxCell>
        <mxCell id="0WveifivUyZPRss3lgg8-3" value="" style="endArrow=open;html=1;rounded=0;endFill=0;entryX=0.5;entryY=0;entryDx=0;entryDy=0;entryPerimeter=0;exitX=0.5;exitY=1;exitDx=0;exitDy=0;" edge="1" parent="1" source="0WveifivUyZPRss3lgg8-1" target="0WveifivUyZPRss3lgg8-2">
          <mxGeometry width="50" height="50" relative="1" as="geometry">
            <mxPoint x="70" y="100" as="sourcePoint" />
            <mxPoint x="120" y="50" as="targetPoint" />
          </mxGeometry>
        </mxCell>
        <mxCell id="0WveifivUyZPRss3lgg8-4" value="&lt;font style=&quot;font-size: 10px;&quot;&gt;Déverouiller&lt;br&gt;&lt;font color=&quot;#00cc00&quot;&gt;gsm&lt;/font&gt;&lt;/font&gt;" style="strokeWidth=2;html=1;shape=mxgraph.flowchart.terminator;whiteSpace=wrap;" vertex="1" parent="1">
          <mxGeometry x="150" y="150" width="70" height="40" as="geometry" />
        </mxCell>
        <mxCell id="0WveifivUyZPRss3lgg8-5" value="" style="endArrow=open;html=1;rounded=0;endFill=0;entryX=0.5;entryY=0;entryDx=0;entryDy=0;entryPerimeter=0;exitX=0;exitY=0.5;exitDx=0;exitDy=0;exitPerimeter=0;" edge="1" parent="1" source="0WveifivUyZPRss3lgg8-2" target="0WveifivUyZPRss3lgg8-4">
          <mxGeometry width="50" height="50" relative="1" as="geometry">
            <mxPoint x="240" y="70" as="sourcePoint" />
            <mxPoint x="240" y="100" as="targetPoint" />
            <Array as="points">
              <mxPoint x="185" y="105" />
            </Array>
          </mxGeometry>
        </mxCell>
        <mxCell id="0WveifivUyZPRss3lgg8-6" value="&lt;font style=&quot;font-size: 10px;&quot;&gt;Ecrire&lt;br&gt;message&lt;/font&gt;" style="strokeWidth=2;html=1;shape=mxgraph.flowchart.terminator;whiteSpace=wrap;" vertex="1" parent="1">
          <mxGeometry x="195" y="280" width="70" height="40" as="geometry" />
        </mxCell>
        <mxCell id="0WveifivUyZPRss3lgg8-7" value="" style="strokeWidth=2;html=1;shape=mxgraph.flowchart.decision;whiteSpace=wrap;" vertex="1" parent="1">
          <mxGeometry x="220" y="220" width="20" height="30" as="geometry" />
        </mxCell>
        <mxCell id="0WveifivUyZPRss3lgg8-8" value="" style="endArrow=open;html=1;rounded=0;endFill=0;entryX=0;entryY=0.5;entryDx=0;entryDy=0;entryPerimeter=0;exitX=0.5;exitY=1;exitDx=0;exitDy=0;exitPerimeter=0;" edge="1" parent="1" source="0WveifivUyZPRss3lgg8-4" target="0WveifivUyZPRss3lgg8-7">
          <mxGeometry width="50" height="50" relative="1" as="geometry">
            <mxPoint x="230" y="115" as="sourcePoint" />
            <mxPoint x="195" y="160" as="targetPoint" />
            <Array as="points">
              <mxPoint x="185" y="235" />
            </Array>
          </mxGeometry>
        </mxCell>
        <mxCell id="0WveifivUyZPRss3lgg8-10" value="" style="endArrow=open;html=1;rounded=0;endFill=0;entryX=1;entryY=0.5;entryDx=0;entryDy=0;entryPerimeter=0;exitX=1;exitY=0.5;exitDx=0;exitDy=0;exitPerimeter=0;" edge="1" parent="1" source="0WveifivUyZPRss3lgg8-2" target="0WveifivUyZPRss3lgg8-7">
          <mxGeometry width="50" height="50" relative="1" as="geometry">
            <mxPoint x="230" y="115" as="sourcePoint" />
            <mxPoint x="195" y="160" as="targetPoint" />
            <Array as="points">
              <mxPoint x="280" y="105" />
              <mxPoint x="280" y="235" />
            </Array>
          </mxGeometry>
        </mxCell>
        <mxCell id="0WveifivUyZPRss3lgg8-11" value="[ si verrouillé ]" style="text;html=1;align=center;verticalAlign=middle;resizable=0;points=[];autosize=1;strokeColor=none;fillColor=none;" vertex="1" parent="1">
          <mxGeometry x="120" y="78" width="100" height="30" as="geometry" />
        </mxCell>
        <mxCell id="0WveifivUyZPRss3lgg8-12" value="[ si déverrouillé ]" style="text;html=1;align=center;verticalAlign=middle;resizable=0;points=[];autosize=1;strokeColor=none;fillColor=none;" vertex="1" parent="1">
          <mxGeometry x="241" y="78" width="110" height="30" as="geometry" />
        </mxCell>
        <mxCell id="0WveifivUyZPRss3lgg8-13" value="" style="endArrow=open;html=1;rounded=0;endFill=0;exitX=0.5;exitY=1;exitDx=0;exitDy=0;exitPerimeter=0;entryX=0.5;entryY=0;entryDx=0;entryDy=0;entryPerimeter=0;" edge="1" parent="1" source="0WveifivUyZPRss3lgg8-7" target="0WveifivUyZPRss3lgg8-6">
          <mxGeometry width="50" height="50" relative="1" as="geometry">
            <mxPoint x="240" y="70" as="sourcePoint" />
            <mxPoint x="280" y="260" as="targetPoint" />
          </mxGeometry>
        </mxCell>
        <mxCell id="0WveifivUyZPRss3lgg8-14" value="" style="endArrow=open;html=1;rounded=0;endFill=0;exitX=0.5;exitY=1;exitDx=0;exitDy=0;exitPerimeter=0;entryX=0.5;entryY=0;entryDx=0;entryDy=0;entryPerimeter=0;" edge="1" parent="1" source="0WveifivUyZPRss3lgg8-6" target="0WveifivUyZPRss3lgg8-15">
          <mxGeometry width="50" height="50" relative="1" as="geometry">
            <mxPoint x="240" y="260" as="sourcePoint" />
            <mxPoint x="230" y="340" as="targetPoint" />
          </mxGeometry>
        </mxCell>
        <mxCell id="0WveifivUyZPRss3lgg8-15" value="" style="strokeWidth=2;html=1;shape=mxgraph.flowchart.decision;whiteSpace=wrap;" vertex="1" parent="1">
          <mxGeometry x="220" y="350" width="20" height="30" as="geometry" />
        </mxCell>
        <mxCell id="0WveifivUyZPRss3lgg8-17" value="" style="endArrow=open;html=1;rounded=0;endFill=0;exitX=0.5;exitY=1;exitDx=0;exitDy=0;exitPerimeter=0;entryX=0.5;entryY=0;entryDx=0;entryDy=0;entryPerimeter=0;" edge="1" parent="1" source="0WveifivUyZPRss3lgg8-15" target="0WveifivUyZPRss3lgg8-18">
          <mxGeometry width="50" height="50" relative="1" as="geometry">
            <mxPoint x="240" y="330" as="sourcePoint" />
            <mxPoint x="230" y="400" as="targetPoint" />
          </mxGeometry>
        </mxCell>
        <mxCell id="0WveifivUyZPRss3lgg8-18" value="" style="strokeWidth=2;html=1;shape=mxgraph.flowchart.decision;whiteSpace=wrap;" vertex="1" parent="1">
          <mxGeometry x="220" y="400" width="20" height="30" as="geometry" />
        </mxCell>
        <mxCell id="0WveifivUyZPRss3lgg8-20" value="" style="endArrow=open;html=1;rounded=0;endFill=0;exitX=1;exitY=0.5;exitDx=0;exitDy=0;exitPerimeter=0;entryX=0.5;entryY=0;entryDx=0;entryDy=0;entryPerimeter=0;" edge="1" parent="1" source="0WveifivUyZPRss3lgg8-18" target="0WveifivUyZPRss3lgg8-23">
          <mxGeometry width="50" height="50" relative="1" as="geometry">
            <mxPoint x="240" y="380" as="sourcePoint" />
            <mxPoint x="280" y="450" as="targetPoint" />
            <Array as="points">
              <mxPoint x="275" y="415" />
            </Array>
          </mxGeometry>
        </mxCell>
        <mxCell id="0WveifivUyZPRss3lgg8-21" value="" style="endArrow=open;html=1;rounded=0;endFill=0;exitX=0;exitY=0.5;exitDx=0;exitDy=0;exitPerimeter=0;entryX=0.5;entryY=0;entryDx=0;entryDy=0;entryPerimeter=0;" edge="1" parent="1" source="0WveifivUyZPRss3lgg8-18" target="0WveifivUyZPRss3lgg8-22">
          <mxGeometry width="50" height="50" relative="1" as="geometry">
            <mxPoint x="250" y="425" as="sourcePoint" />
            <mxPoint x="200" y="450" as="targetPoint" />
            <Array as="points">
              <mxPoint x="184" y="415" />
            </Array>
          </mxGeometry>
        </mxCell>
        <mxCell id="0WveifivUyZPRss3lgg8-22" value="&lt;font style=&quot;font-size: 10px;&quot;&gt;Choisir&lt;br&gt;destinataire&lt;/font&gt;" style="strokeWidth=2;html=1;shape=mxgraph.flowchart.terminator;whiteSpace=wrap;" vertex="1" parent="1">
          <mxGeometry x="149" y="450" width="70" height="40" as="geometry" />
        </mxCell>
        <mxCell id="0WveifivUyZPRss3lgg8-23" value="&lt;font style=&quot;font-size: 10px;&quot;&gt;Entrer numéro&lt;br&gt;inconnu&lt;/font&gt;" style="strokeWidth=2;html=1;shape=mxgraph.flowchart.terminator;whiteSpace=wrap;" vertex="1" parent="1">
          <mxGeometry x="240" y="450" width="70" height="40" as="geometry" />
        </mxCell>
        <mxCell id="0WveifivUyZPRss3lgg8-25" value="" style="strokeWidth=2;html=1;shape=mxgraph.flowchart.decision;whiteSpace=wrap;" vertex="1" parent="1">
          <mxGeometry x="221" y="520" width="20" height="30" as="geometry" />
        </mxCell>
        <mxCell id="0WveifivUyZPRss3lgg8-26" value="" style="endArrow=open;html=1;rounded=0;endFill=0;exitX=0.5;exitY=1;exitDx=0;exitDy=0;exitPerimeter=0;entryX=1;entryY=0.5;entryDx=0;entryDy=0;entryPerimeter=0;" edge="1" parent="1" source="0WveifivUyZPRss3lgg8-23" target="0WveifivUyZPRss3lgg8-25">
          <mxGeometry width="50" height="50" relative="1" as="geometry">
            <mxPoint x="250" y="425" as="sourcePoint" />
            <mxPoint x="285" y="460" as="targetPoint" />
            <Array as="points">
              <mxPoint x="275" y="535" />
            </Array>
          </mxGeometry>
        </mxCell>
        <mxCell id="0WveifivUyZPRss3lgg8-27" value="" style="endArrow=open;html=1;rounded=0;endFill=0;exitX=0.5;exitY=1;exitDx=0;exitDy=0;exitPerimeter=0;entryX=0;entryY=0.5;entryDx=0;entryDy=0;entryPerimeter=0;" edge="1" parent="1" source="0WveifivUyZPRss3lgg8-22" target="0WveifivUyZPRss3lgg8-25">
          <mxGeometry width="50" height="50" relative="1" as="geometry">
            <mxPoint x="285" y="500" as="sourcePoint" />
            <mxPoint x="251" y="565" as="targetPoint" />
            <Array as="points">
              <mxPoint x="184" y="535" />
            </Array>
          </mxGeometry>
        </mxCell>
        <mxCell id="0WveifivUyZPRss3lgg8-28" value="" style="endArrow=open;html=1;rounded=0;endFill=0;exitX=0.5;exitY=1;exitDx=0;exitDy=0;exitPerimeter=0;entryX=0;entryY=0.5;entryDx=0;entryDy=0;entryPerimeter=0;" edge="1" parent="1" source="0WveifivUyZPRss3lgg8-25" target="0WveifivUyZPRss3lgg8-15">
          <mxGeometry width="50" height="50" relative="1" as="geometry">
            <mxPoint x="285" y="510" as="sourcePoint" />
            <mxPoint x="170" y="390" as="targetPoint" />
            <Array as="points">
              <mxPoint x="231" y="570" />
              <mxPoint x="130" y="570" />
              <mxPoint x="130" y="365" />
            </Array>
          </mxGeometry>
        </mxCell>
        <mxCell id="0WveifivUyZPRss3lgg8-29" value="[ si contact&lt;br&gt;enregistré ]" style="text;html=1;align=center;verticalAlign=middle;resizable=0;points=[];autosize=1;strokeColor=none;fillColor=none;" vertex="1" parent="1">
          <mxGeometry x="139" y="374" width="80" height="40" as="geometry" />
        </mxCell>
        <mxCell id="0WveifivUyZPRss3lgg8-30" value="[ si contact non&lt;br&gt;enregistré ]" style="text;html=1;align=center;verticalAlign=middle;resizable=0;points=[];autosize=1;strokeColor=none;fillColor=none;" vertex="1" parent="1">
          <mxGeometry x="235" y="374" width="100" height="40" as="geometry" />
        </mxCell>
        <mxCell id="0WveifivUyZPRss3lgg8-32" value="" style="endArrow=open;html=1;rounded=0;endFill=0;exitX=1;exitY=0.5;exitDx=0;exitDy=0;exitPerimeter=0;entryX=0.5;entryY=0;entryDx=0;entryDy=0;entryPerimeter=0;strokeColor=#FF0000;" edge="1" parent="1" source="0WveifivUyZPRss3lgg8-15" target="0WveifivUyZPRss3lgg8-33">
          <mxGeometry width="50" height="50" relative="1" as="geometry">
            <mxPoint x="240" y="330" as="sourcePoint" />
            <mxPoint x="230" y="620" as="targetPoint" />
            <Array as="points">
              <mxPoint x="340" y="365" />
              <mxPoint x="340" y="590" />
              <mxPoint x="230" y="590" />
            </Array>
          </mxGeometry>
        </mxCell>
        <mxCell id="0WveifivUyZPRss3lgg8-47" value="&lt;font style=&quot;font-size: 20px;&quot; color=&quot;#ff0000&quot;&gt;X&lt;/font&gt;" style="edgeLabel;html=1;align=center;verticalAlign=middle;resizable=0;points=[];" vertex="1" connectable="0" parent="0WveifivUyZPRss3lgg8-32">
          <mxGeometry x="-0.0878" y="-1" relative="1" as="geometry">
            <mxPoint as="offset" />
          </mxGeometry>
        </mxCell>
        <mxCell id="0WveifivUyZPRss3lgg8-33" value="" style="strokeWidth=2;html=1;shape=mxgraph.flowchart.decision;whiteSpace=wrap;fillColor=#f8cecc;strokeColor=#b85450;" vertex="1" parent="1">
          <mxGeometry x="220" y="610" width="20" height="30" as="geometry" />
        </mxCell>
        <mxCell id="0WveifivUyZPRss3lgg8-35" value="[ si plus de destinataire&lt;br&gt;et au moins 1&lt;br&gt;destinataire choisi ]" style="text;html=1;align=center;verticalAlign=middle;resizable=0;points=[];autosize=1;strokeColor=none;fillColor=none;" vertex="1" parent="1">
          <mxGeometry x="351" y="354" width="150" height="60" as="geometry" />
        </mxCell>
        <mxCell id="0WveifivUyZPRss3lgg8-36" value="&lt;font style=&quot;font-size: 10px;&quot;&gt;Envoyer&lt;br&gt;SMS&lt;/font&gt;" style="strokeWidth=2;html=1;shape=mxgraph.flowchart.terminator;whiteSpace=wrap;" vertex="1" parent="1">
          <mxGeometry x="195" y="700" width="70" height="40" as="geometry" />
        </mxCell>
        <mxCell id="0WveifivUyZPRss3lgg8-38" value="" style="endArrow=open;html=1;rounded=0;endFill=0;exitX=0.5;exitY=1;exitDx=0;exitDy=0;exitPerimeter=0;strokeColor=#FF0000;" edge="1" parent="1" source="0WveifivUyZPRss3lgg8-33" target="0WveifivUyZPRss3lgg8-36">
          <mxGeometry width="50" height="50" relative="1" as="geometry">
            <mxPoint x="240" y="330" as="sourcePoint" />
            <mxPoint x="240" y="360" as="targetPoint" />
          </mxGeometry>
        </mxCell>
        <mxCell id="0WveifivUyZPRss3lgg8-44" value="&lt;font style=&quot;font-size: 20px;&quot; color=&quot;#ff0000&quot;&gt;X&lt;/font&gt;" style="edgeLabel;html=1;align=center;verticalAlign=middle;resizable=0;points=[];" vertex="1" connectable="0" parent="0WveifivUyZPRss3lgg8-38">
          <mxGeometry x="-0.1527" relative="1" as="geometry">
            <mxPoint as="offset" />
          </mxGeometry>
        </mxCell>
        <mxCell id="0WveifivUyZPRss3lgg8-40" value="" style="endArrow=open;html=1;rounded=0;endFill=0;exitX=0.5;exitY=1;exitDx=0;exitDy=0;exitPerimeter=0;entryX=0.5;entryY=0;entryDx=0;entryDy=0;" edge="1" parent="1" source="0WveifivUyZPRss3lgg8-36" target="0WveifivUyZPRss3lgg8-42">
          <mxGeometry width="50" height="50" relative="1" as="geometry">
            <mxPoint x="240" y="650" as="sourcePoint" />
            <mxPoint x="230" y="740" as="targetPoint" />
          </mxGeometry>
        </mxCell>
        <mxCell id="0WveifivUyZPRss3lgg8-41" value="" style="ellipse;whiteSpace=wrap;html=1;aspect=fixed;fillColor=#000000;" vertex="1" parent="1">
          <mxGeometry x="220" y="770" width="20" height="20" as="geometry" />
        </mxCell>
        <mxCell id="0WveifivUyZPRss3lgg8-42" value="" style="ellipse;whiteSpace=wrap;html=1;aspect=fixed;fillColor=none;" vertex="1" parent="1">
          <mxGeometry x="215" y="765" width="30" height="30" as="geometry" />
        </mxCell>
        <mxCell id="0WveifivUyZPRss3lgg8-45" value="" style="endArrow=open;html=1;rounded=0;endFill=0;exitX=1;exitY=0.5;exitDx=0;exitDy=0;exitPerimeter=0;entryX=1;entryY=0.5;entryDx=0;entryDy=0;entryPerimeter=0;strokeColor=#00CC00;" edge="1" parent="1" source="0WveifivUyZPRss3lgg8-15" target="0WveifivUyZPRss3lgg8-36">
          <mxGeometry width="50" height="50" relative="1" as="geometry">
            <mxPoint x="340" y="505" as="sourcePoint" />
            <mxPoint x="330" y="750" as="targetPoint" />
            <Array as="points">
              <mxPoint x="250" y="350" />
              <mxPoint x="360" y="350" />
              <mxPoint x="360" y="720" />
            </Array>
          </mxGeometry>
        </mxCell>
      </root>
    </mxGraphModel>
  </diagram>
</mxfile>
